<?xml version="1.0" encoding="UTF-8" standalone="no"?>
<!-- Created with Inkscape (http://www.inkscape.org/) -->

<svg
   width="116.26378"
   height="118.89458"
   viewBox="0 0 38.754593 39.631526"
   version="1.1"
   id="svg1"
   xml:space="preserve"
   xmlns="http://www.w3.org/2000/svg"
   xmlns:svg="http://www.w3.org/2000/svg"><defs
     id="defs1"><linearGradient
       id="swatch31"><stop
         style="stop-color:#000000;stop-opacity:0.40632276;"
         offset="0"
         id="stop32" /></linearGradient><linearGradient
       id="linearGradient30"><stop
         style="stop-color:#3c6eb4;stop-opacity:0.40632276;"
         offset="0"
         id="stop30" /><stop
         style="stop-color:#3c6eb4;stop-opacity:0;"
         offset="1"
         id="stop31" /></linearGradient><style
       id="style1">
      .st0, .st1 {
        fill: none;
      }

      .st1 {
        stroke: #000;
        stroke-linecap: round;
        stroke-linejoin: round;
        stroke-width: 32px;
      }
    </style><style
       id="style1-7">
      .st0, .st1 {
        fill: none;
      }

      .st1 {
        stroke: #000;
        stroke-linecap: round;
        stroke-linejoin: round;
        stroke-width: 32px;
      }
    </style><style
       id="style1-0">
      .st0, .st1 {
        fill: none;
      }

      .st1 {
        stroke: #000;
        stroke-linecap: round;
        stroke-linejoin: round;
        stroke-width: 32px;
      }
    </style><style
       id="style1-06">
      .st0, .st1 {
        fill: none;
      }

      .st1 {
        stroke: #000;
        stroke-linecap: round;
        stroke-linejoin: round;
        stroke-width: 32px;
      }
    </style><style
       id="style1-6">
      .st0, .st1 {
        fill: none;
      }

      .st1 {
        stroke: #000;
        stroke-linecap: round;
        stroke-linejoin: round;
        stroke-width: 32px;
      }
    </style><style
       id="style1-8">
      .st0, .st1 {
        fill: none;
      }

      .st1 {
        stroke: #000;
        stroke-linecap: round;
        stroke-linejoin: round;
        stroke-width: 32px;
      }
    </style></defs><g
     id="g96"
     transform="matrix(0.75841917,-0.1813245,0.1813245,0.75841917,-335.78991,-37.259757)"
     style="stroke-width:1.68686"><rect
       style="opacity:1;fill:#000000;fill-opacity:1;stroke:none;stroke-width:0.112457;stroke-dasharray:none;stroke-opacity:1"
       id="rect94"
       width="42.002144"
       height="42.002144"
       x="405.8002"
       y="155.11028"
       rx="5.1295619"
       ry="5.1295619" /><path
       d="m 435.78808,171.74401 c -0.29919,-0.0998 -0.59838,-0.19392 -0.89758,-0.28258 0.0499,-0.205 0.0942,-0.40999 0.13851,-0.615 0.6815,-3.30219 0.23271,-5.95613 -1.27987,-6.83154 -1.45717,-0.83664 -3.83409,0.0333 -6.2387,2.12758 -0.23824,0.205 -0.47095,0.42108 -0.69258,0.63717 -0.14959,-0.14405 -0.30473,-0.28811 -0.45986,-0.42662 -2.52097,-2.2384 -5.04747,-3.1803 -6.56006,-2.29934 -1.45163,0.84216 -1.88379,3.34097 -1.27433,6.46586 0.0609,0.31026 0.12743,0.61499 0.205,0.92527 -0.3546,0.0998 -0.70365,0.21055 -1.03054,0.3269 -2.95868,1.02501 -5.08072,2.64286 -5.08072,4.31612 0,1.72866 2.26056,3.46287 5.33558,4.51557 0.24933,0.0831 0.49865,0.16622 0.75351,0.23824 -0.0831,0.33244 -0.15513,0.65934 -0.22162,0.99731 -0.58176,3.07502 -0.12743,5.51288 1.32421,6.34952 1.49596,0.86432 4.01138,-0.0221 6.46032,-2.16638 0.19392,-0.17175 0.38784,-0.34905 0.58177,-0.53744 0.24378,0.23825 0.49865,0.46542 0.75351,0.68704 2.37137,2.03894 4.71504,2.86449 6.16114,2.02785 1.49595,-0.86432 1.98352,-3.48502 1.35189,-6.6764 -0.0498,-0.24378 -0.10527,-0.49311 -0.16621,-0.74797 0.17729,-0.0499 0.34905,-0.10527 0.52081,-0.16069 3.19692,-1.05825 5.51288,-2.77029 5.51288,-4.52665 0,-1.6788 -2.18298,-3.30773 -5.19706,-4.34382 z m -7.49641,-4.70396 c 2.06109,-1.79515 3.98367,-2.49881 4.85909,-1.99461 0.93636,0.53744 1.29649,2.70934 0.70919,5.56274 -0.0388,0.18839 -0.0776,0.37122 -0.12744,0.55406 -1.23001,-0.27703 -2.47664,-0.47649 -3.7288,-0.5873 -0.72029,-1.03054 -1.50704,-2.01678 -2.3603,-2.94205 0.21608,-0.205 0.42663,-0.39892 0.64826,-0.59284 z m -6.41046,11.92334 c 0.28257,0.48202 0.57067,0.96406 0.87541,1.435 -0.86433,-0.0942 -1.72312,-0.2327 -2.57083,-0.41554 0.24378,-0.79784 0.54852,-1.62338 0.90312,-2.46556 0.25486,0.48757 0.51526,0.96961 0.7923,1.4461 z m -1.67881,-6.66533 c 0.79785,-0.17729 1.64556,-0.32135 2.52652,-0.43215 -0.29365,0.45985 -0.58177,0.93081 -0.85326,1.4073 -0.27149,0.47095 -0.53743,0.95298 -0.78675,1.44055 -0.34906,-0.82555 -0.64272,-1.63447 -0.88651,-2.4157 z m 1.51813,3.81747 c 0.36568,-0.7646 0.7646,-1.51259 1.18569,-2.24948 0.42108,-0.7369 0.87541,-1.45163 1.3519,-2.15529 0.83108,-0.0609 1.67879,-0.0942 2.54313,-0.0942 0.86434,0 1.71758,0.0333 2.54313,0.0942 0.47095,0.69811 0.91973,1.41285 1.34636,2.14421 0.42663,0.73135 0.82554,1.47934 1.2023,2.23839 -0.37122,0.76461 -0.77014,1.51813 -1.19676,2.26057 -0.42109,0.73689 -0.86988,1.45163 -1.34083,2.16082 -0.82554,0.0609 -1.68433,0.0886 -2.5542,0.0886 -0.86987,0 -1.71205,-0.0277 -2.5265,-0.0775 -0.48204,-0.70367 -0.93637,-1.42393 -1.36299,-2.16084 -0.42663,-0.7369 -0.82001,-1.48487 -1.19123,-2.24947 z m 10.0063,2.83677 c 0.28256,-0.48756 0.54851,-0.98068 0.80891,-1.47934 0.35462,0.80339 0.66488,1.61786 0.93637,2.45449 -0.85878,0.19393 -1.72866,0.34352 -2.60407,0.44325 0.29919,-0.46541 0.58176,-0.9419 0.85879,-1.4184 z m 0.79784,-4.23854 c -0.2604,-0.48757 -0.52635,-0.97514 -0.80338,-1.45163 -0.27149,-0.47095 -0.55406,-0.93637 -0.84771,-1.39622 0.89204,0.1108 1.74529,0.2604 2.54313,0.44323 -0.25487,0.82001 -0.55406,1.61786 -0.89204,2.40462 z m -5.71234,-6.23316 c 0.58175,0.63162 1.13027,1.2965 1.64001,1.98353 -1.09704,-0.0499 -2.19961,-0.0499 -3.29664,0 0.54296,-0.71473 1.10257,-1.37961 1.65663,-1.98353 z m -6.42708,-3.39638 c 0.93082,-0.54298 2.99746,0.23271 5.1749,2.16083 0.13851,0.12189 0.27703,0.25487 0.42109,0.38784 -0.85878,0.92527 -1.65109,1.91151 -2.37691,2.94205 -1.25218,0.11081 -2.49326,0.30473 -3.72328,0.57622 -0.072,-0.28258 -0.13297,-0.57068 -0.19391,-0.8588 -0.52082,-2.68163 -0.17731,-4.70394 0.69811,-5.20814 z m -1.35745,14.60498 c -0.2327,-0.0665 -0.45986,-0.1385 -0.68703,-0.21607 -1.18014,-0.37123 -2.52096,-0.95853 -3.49056,-1.72868 -0.55961,-0.38783 -0.93637,-0.98621 -1.04164,-1.65662 0,-1.01393 1.75082,-2.31043 4.27733,-3.19138 0.31581,-0.11082 0.63717,-0.21055 0.95853,-0.30473 0.37676,1.2023 0.83108,2.38244 1.35743,3.52381 -0.53189,1.15798 -0.99175,2.35474 -1.37406,3.57367 z m 6.46033,5.42978 c -0.91419,0.83663 -1.97245,1.5015 -3.12489,1.95583 -0.61501,0.29365 -1.3242,0.32135 -1.95584,0.072 -0.88095,-0.50973 -1.24662,-2.46556 -0.74796,-5.09733 0.0609,-0.31029 0.12743,-0.62055 0.20499,-0.92528 1.24109,0.26594 2.49327,0.44878 3.76207,0.54296 0.73135,1.0361 1.53474,2.02787 2.39352,2.95868 -0.1773,0.17176 -0.3546,0.33798 -0.53189,0.49312 z m 1.35744,-1.34636 c -0.56514,-0.60947 -1.13028,-1.28542 -1.6788,-2.01124 0.53189,0.0221 1.08041,0.0333 1.63448,0.0333 0.57068,0 1.13027,-0.0111 1.68433,-0.0388 -0.50973,0.70366 -1.05824,1.37408 -1.64001,2.01678 z m 7.24155,1.66217 c -0.0499,0.67595 -0.38231,1.30758 -0.9142,1.7342 -0.88095,0.50974 -2.75922,-0.15513 -4.78707,-1.89487 -0.2327,-0.19946 -0.4654,-0.41555 -0.70365,-0.63718 0.84771,-0.93635 1.62892,-1.92812 2.33813,-2.96975 1.26878,-0.10527 2.53204,-0.29919 3.77868,-0.58175 0.0554,0.22716 0.10526,0.45432 0.14959,0.67594 0.27149,1.19677 0.31582,2.4434 0.13852,3.67341 z m 1.00838,-5.95613 c -0.15513,0.0499 -0.31027,0.0998 -0.47095,0.14406 -0.38784,-1.20785 -0.86432,-2.38799 -1.41284,-3.53489 0.53189,-1.13028 0.98068,-2.29381 1.35744,-3.48504 0.2881,0.0831 0.56514,0.17177 0.83108,0.26042 2.58192,0.88648 4.39369,2.20515 4.39369,3.21353 0,1.08596 -1.93367,2.48772 -4.69842,3.40192 z m -8.29425,-0.83109 c 1.40176,0 2.53758,-1.13581 2.53758,-2.53759 0,-1.40175 -1.13582,-2.53758 -2.53758,-2.53758 -1.40178,0 -2.53759,1.13583 -2.53759,2.53758 0,1.40178 1.13581,2.53759 2.53759,2.53759 z"
       id="path1"
       style="fill:#ffffff;fill-opacity:1;stroke-width:0.562284" /><rect
       style="opacity:1;fill:none;fill-opacity:1;stroke:#000000;stroke-width:0.112457;stroke-dasharray:none;stroke-opacity:1"
       id="rect97"
       width="42.002144"
       height="42.002144"
       x="404.18344"
       y="157.03629"
       rx="5.1295619"
       ry="5.1295619" /></g></svg>
