<?xml version="1.0" encoding="UTF-8" standalone="no"?>
<!-- Created with Inkscape (http://www.inkscape.org/) -->

<svg
   width="130.83487"
   height="133.46573"
   viewBox="0 0 43.611623 44.488576"
   version="1.1"
   id="svg1"
   xml:space="preserve"
   xmlns="http://www.w3.org/2000/svg"
   xmlns:svg="http://www.w3.org/2000/svg"><defs
     id="defs1"><linearGradient
       id="swatch31"><stop
         style="stop-color:#000000;stop-opacity:0.40632276;"
         offset="0"
         id="stop32" /></linearGradient><linearGradient
       id="linearGradient30"><stop
         style="stop-color:#3c6eb4;stop-opacity:0.40632276;"
         offset="0"
         id="stop30" /><stop
         style="stop-color:#3c6eb4;stop-opacity:0;"
         offset="1"
         id="stop31" /></linearGradient><style
       id="style1">
      .st0, .st1 {
        fill: none;
      }

      .st1 {
        stroke: #000;
        stroke-linecap: round;
        stroke-linejoin: round;
        stroke-width: 32px;
      }
    </style><style
       id="style1-7">
      .st0, .st1 {
        fill: none;
      }

      .st1 {
        stroke: #000;
        stroke-linecap: round;
        stroke-linejoin: round;
        stroke-width: 32px;
      }
    </style><style
       id="style1-0">
      .st0, .st1 {
        fill: none;
      }

      .st1 {
        stroke: #000;
        stroke-linecap: round;
        stroke-linejoin: round;
        stroke-width: 32px;
      }
    </style><style
       id="style1-06">
      .st0, .st1 {
        fill: none;
      }

      .st1 {
        stroke: #000;
        stroke-linecap: round;
        stroke-linejoin: round;
        stroke-width: 32px;
      }
    </style><style
       id="style1-6">
      .st0, .st1 {
        fill: none;
      }

      .st1 {
        stroke: #000;
        stroke-linecap: round;
        stroke-linejoin: round;
        stroke-width: 32px;
      }
    </style><style
       id="style1-8">
      .st0, .st1 {
        fill: none;
      }

      .st1 {
        stroke: #000;
        stroke-linecap: round;
        stroke-linejoin: round;
        stroke-width: 32px;
      }
    </style></defs><g
     id="g97"
     transform="matrix(0.90043619,0.14351883,-0.14351883,0.90043619,-387.3104,-206.17912)"
     style="stroke-width:1.44264"><rect
       style="opacity:1;fill:#000000;fill-opacity:1;stroke:none;stroke-width:0.0961758;stroke-dasharray:none;stroke-opacity:1"
       id="rect95"
       width="42.002144"
       height="42.002144"
       x="460.87381"
       y="154.87642"
       rx="4.3869166"
       ry="4.3869166" /><g
       style="fill:#ffffff;stroke-width:9.87064"
       id="g94"
       transform="matrix(0.04871809,0,0,0.04871809,471.86331,164.35566)"><path
         fill-rule="evenodd"
         clip-rule="evenodd"
         d="m 392.946,364.768 c 4.255,54.65 4.255,80.268 4.255,108.232 H 270.756 c 0,-6.091 0.109,-11.663 0.219,-17.313 0.342,-17.564 0.699,-35.88 -2.147,-72.868 -3.761,-54.152 -27.08,-66.185 -69.957,-66.185 H 160.883 0 v -98.525 h 204.889 c 54.16,0 81.241,-16.476 81.241,-60.098 0,-38.357 -27.081,-61.6012 -81.241,-61.6012 H 0 V 0 H 227.456 C 350.069,0 411,57.9117 411,150.42 c 0,69.193 -42.877,114.319 -100.799,121.84 48.895,9.777 77.48,37.605 82.745,92.508 z"
         fill="#121212"
         id="path1-7"
         style="fill:#ffffff;stroke-width:9.87064" /><path
         d="m 0,473 v -73.447 h 133.697 c 22.332,0 27.181,16.563 27.181,26.441 V 473 Z"
         fill="#121212"
         id="path2-1"
         style="fill:#ffffff;stroke-width:9.87064" /></g><rect
       style="opacity:1;fill:none;fill-opacity:1;stroke:#000000;stroke-width:0.0961758;stroke-dasharray:none;stroke-opacity:1"
       id="rect98"
       width="42.002144"
       height="42.002144"
       x="462.12631"
       y="156.62457"
       rx="4.3869166"
       ry="4.3869166" /></g></svg>
