<?xml version="1.0" ?><svg data-name="Layer 1" id="Layer_1" viewBox="0 0 512 512" xmlns="http://www.w3.org/2000/svg"><defs><style>.cls-1{fill:#1f0040;}.cls-2{fill:#f7eefe;}</style></defs><rect class="cls-1" height="419.17" rx="96.06" width="432" x="40" y="46.42"/><rect class="cls-1" height="379.17" rx="76.06" width="392" x="60" y="66.42"/><path class="cls-2" d="M160.11,291.18l-12.2,37.6a2.74,2.74,0,0,1-2.79,2H115.65c-1.78,0-2.28-1-2-2.54l50.81-146.58c1-2.79,2-5.84,2.54-15.49a1.7,1.7,0,0,1,1.52-1.78h40.64c1.28,0,1.78.25,2,1.52l57.66,162.58c.51,1.27.25,2.29-1.27,2.29h-33a2.57,2.57,0,0,1-2.8-1.78l-13-37.85Zm49.28-31.75c-5.08-16.77-15.24-47.51-20.07-65.54h-.25c-4.07,17-13.21,45-19.82,65.54Z"/><path class="cls-2" d="M312.52,277c1.27,14.48,11.43,26.42,36.33,26.42,11.43,0,21.59-1.77,31.24-5.84.77-.51,1.53-.25,1.53,1.27v24.13c0,1.78-.51,2.54-1.78,3.05-10.16,4.83-21.34,7.37-38.87,7.37-47.75,0-64.52-32.77-64.52-64.27C276.45,234,298,202,337.93,202c38.35,0,53.6,29.72,53.6,54.87,0,7.87-.51,14.22-1.28,17a2.18,2.18,0,0,1-2,2c-3.3.51-13,1-26.16,1Zm33-24.64c8.12,0,11.68-.25,12.7-.5V250c0-6.1-4.83-20.07-21.59-20.07-16,0-22.87,11.94-24.39,22.35Z"/></svg>