<?xml version="1.0" encoding="UTF-8" standalone="no"?>
<svg
   data-name="Layer 1"
   id="Layer_1"
   viewBox="0 0 512 512"
   version="1.1"
   sodipodi:docname="ae.svg"
   inkscape:version="1.1.2 (0a00cf5, 2022-02-04)"
   xmlns:inkscape="http://www.inkscape.org/namespaces/inkscape"
   xmlns:sodipodi="http://sodipodi.sourceforge.net/DTD/sodipodi-0.dtd"
   xmlns="http://www.w3.org/2000/svg"
   xmlns:svg="http://www.w3.org/2000/svg">
  <sodipodi:namedview
     id="namedview1964"
     pagecolor="#ffffff"
     bordercolor="#999999"
     borderopacity="1"
     inkscape:pageshadow="0"
     inkscape:pageopacity="0"
     inkscape:pagecheckerboard="0"
     showgrid="false"
     inkscape:zoom="1.578125"
     inkscape:cx="256"
     inkscape:cy="256"
     inkscape:window-width="1920"
     inkscape:window-height="1016"
     inkscape:window-x="0"
     inkscape:window-y="28"
     inkscape:window-maximized="1"
     inkscape:current-layer="Layer_1" />
  <defs
     id="defs1953">
    <style
       id="style1951">.cls-1{fill:#1f0040;}.cls-2{fill:#f7eefe;}</style>
  </defs>
  <path
     id="rect1955"
     style="fill:#000000"
     class="cls-1"
     d="M 136.06055 46.419922 C 82.843305 46.419922 40 89.263229 40 142.48047 L 40 369.5293 C 40 422.74654 82.843305 465.58984 136.06055 465.58984 L 375.93945 465.58984 C 429.15669 465.58984 472 422.74654 472 369.5293 L 472 142.48047 C 472 89.263229 429.15669 46.419922 375.93945 46.419922 L 136.06055 46.419922 z M 168.51953 164.39062 L 209.16016 164.39062 C 210.44016 164.39062 210.94016 164.64016 211.16016 165.91016 L 268.82031 328.49023 C 269.33031 329.76023 269.07078 330.7793 267.55078 330.7793 L 234.55078 330.7793 A 2.57 2.57 0 0 1 231.75 329 L 218.75 291.15039 L 160.10938 291.17969 L 147.91016 328.7793 A 2.74 2.74 0 0 1 145.11914 330.7793 L 115.65039 330.7793 C 113.87039 330.7793 113.37039 329.78023 113.65039 328.24023 L 164.46094 181.66016 C 165.46094 178.87016 166.46 175.81992 167 166.16992 A 1.7 1.7 0 0 1 168.51953 164.39062 z M 189.07031 193.89062 C 185.00031 210.89062 175.86 238.88969 169.25 259.42969 L 209.39062 259.42969 C 204.31062 242.65969 194.15031 211.92064 189.32031 193.89062 L 189.07031 193.89062 z M 337.92969 202 C 376.27969 202 391.5293 231.71914 391.5293 256.86914 C 391.5293 264.73914 391.02 271.08914 390.25 273.86914 A 2.18 2.18 0 0 1 388.25 275.86914 C 384.95 276.37914 375.24984 276.86914 362.08984 276.86914 L 312.51953 277 C 313.78953 291.48 323.94961 303.41992 348.84961 303.41992 C 360.27961 303.41992 370.43984 301.65008 380.08984 297.58008 C 380.85984 297.07008 381.61914 297.32961 381.61914 298.84961 L 381.61914 322.98047 C 381.61914 324.76047 381.10984 325.5193 379.83984 326.0293 C 369.67984 330.8593 358.5007 333.40039 340.9707 333.40039 C 293.2207 333.40039 276.44922 300.63086 276.44922 269.13086 C 276.44922 234.00086 297.99969 202 337.92969 202 z M 336.63086 229.92969 C 320.63086 229.92969 313.76023 241.8693 312.24023 252.2793 L 345.51953 252.35938 C 353.63953 252.35938 357.2007 252.10938 358.2207 251.85938 L 358.2207 250 C 358.2207 243.9 353.39086 229.92969 336.63086 229.92969 z " />
</svg>
