<?xml version="1.0" ?><svg data-name="Layer 1" id="Layer_1" viewBox="0 0 512 512" xmlns="http://www.w3.org/2000/svg"><defs><style>.cls-1{fill:#002620;}.cls-2{fill:#d8faf4;}</style></defs><rect class="cls-1" height="419.17" rx="96.06" width="432" x="40" y="46.42"/><rect class="cls-1" height="379.17" rx="76.06" width="392" x="60" y="66.42"/><path class="cls-2" d="M156.81,291.18l-12.2,37.6a2.74,2.74,0,0,1-2.79,2H112.35c-1.78,0-2.28-1-2-2.54l50.81-146.58c1-2.79,2-5.84,2.54-15.49a1.7,1.7,0,0,1,1.52-1.78h40.64c1.27,0,1.78.25,2,1.52l57.66,162.58c.51,1.27.25,2.29-1.27,2.29h-33a2.57,2.57,0,0,1-2.8-1.78l-12.95-37.85Zm49.28-31.75C201,242.66,190.85,211.92,186,193.89h-.25c-4.07,17-13.21,45-19.82,65.54Z"/><path class="cls-2" d="M386.7,302.61a232.17,232.17,0,0,0,1.52,26.17c.26,1.52-.5,2-2.28,2H359c-2,0-2.54-.51-3.05-1.78-.51-2.29-1.27-5.59-1.52-7.88-11.18,9.66-23.88,12.2-34.8,12.2-25.41,0-42.93-14-42.93-49V206.59c0-1.78.5-2,2.28-2h31c1.53,0,1.78.5,1.78,2v73.67c0,13.71,5.84,22.6,19.82,22.6a28.12,28.12,0,0,0,19.81-7.36V206.59c0-1.53.76-2,2.54-2h30.74c1.78,0,2,.5,2,2Z"/></svg>