<?xml version="1.0" encoding="UTF-8" standalone="no"?>
<svg
   width="361px"
   height="361px"
   viewBox="-52.5 0 361 361"
   version="1.1"
   preserveAspectRatio="xMidYMid"
   id="svg2275"
   sodipodi:docname="css.svg"
   inkscape:version="1.1.2 (0a00cf5, 2022-02-04)"
   xmlns:inkscape="http://www.inkscape.org/namespaces/inkscape"
   xmlns:sodipodi="http://sodipodi.sourceforge.net/DTD/sodipodi-0.dtd"
   xmlns="http://www.w3.org/2000/svg"
   xmlns:svg="http://www.w3.org/2000/svg">
  <defs
     id="defs2279" />
  <sodipodi:namedview
     id="namedview2277"
     pagecolor="#ffffff"
     bordercolor="#999999"
     borderopacity="1"
     inkscape:pageshadow="0"
     inkscape:pageopacity="0"
     inkscape:pagecheckerboard="0"
     showgrid="false"
     inkscape:zoom="1.5826656"
     inkscape:cx="152.90659"
     inkscape:cy="298.86289"
     inkscape:window-width="1920"
     inkscape:window-height="1016"
     inkscape:window-x="0"
     inkscape:window-y="28"
     inkscape:window-maximized="1"
     inkscape:current-layer="g2273" />
  <g
     id="g2273">
    <path
       id="path2255"
       style="fill:#000000"
       d="M 52.945312 70.765625 L 76.162109 331.16602 L 180.34375 360.08789 L 284.81445 331.125 L 308.05469 70.765625 L 52.945312 70.765625 z M 100.41797 123.99414 L 180.38867 123.99414 L 201.31055 123.99414 L 260.39258 123.99414 L 254.62695 188.63672 L 253.84766 197.21289 L 246.3418 281.29102 L 245.86133 286.6875 L 180.5 304.80273 L 180.5 304.80859 L 180.35352 304.84961 L 114.93164 286.6875 L 110.45703 236.54102 L 142.51758 236.54102 L 144.79102 262.01367 L 180.35938 271.61719 L 180.38867 271.60938 L 180.38867 271.60742 L 216.00977 261.99219 L 219.7168 220.57227 L 192.6543 220.57227 L 180.38867 220.57227 L 109.49805 220.57227 L 106.16797 188.63672 L 180.38867 188.63672 L 192.6543 188.63672 L 222.48633 188.63672 L 225.39258 155.93164 L 201.31055 155.93164 L 180.38867 155.93164 L 104.07422 155.93164 L 100.41797 123.99414 z "
       transform="translate(-52.5)" />
    <path
       d="M60.4835165,0 L99.1648352,0 L99.1648352,16.1758242 L76.6593407,16.1758242 L76.6593407,32.3516484 L99.1648352,32.3516484 L99.1648352,48.5274725 L60.4835165,48.5274725 L60.4835165,0 L60.4835165,0 Z"
       fill="#000000"
       id="path2265" />
    <path
       d="M106.901099,0 L145.582418,0 L145.582418,14.0659341 L123.076923,14.0659341 L123.076923,16.8791209 L145.582418,16.8791209 L145.582418,49.2307692 L106.901099,49.2307692 L106.901099,34.4615385 L129.406593,34.4615385 L129.406593,31.6483516 L106.901099,31.6483516 L106.901099,0 L106.901099,0 Z"
       fill="#000000"
       id="path2267" />
    <path
       d="M153.318681,0 L192,0 L192,14.0659341 L169.494505,14.0659341 L169.494505,16.8791209 L192,16.8791209 L192,49.2307692 L153.318681,49.2307692 L153.318681,34.4615385 L175.824176,34.4615385 L175.824176,31.6483516 L153.318681,31.6483516 L153.318681,0 L153.318681,0 Z"
       fill="#000000"
       id="path2269" />
  </g>
</svg>
