<?xml version="1.0" encoding="UTF-8" standalone="no"?>
<svg
   width="361px"
   height="361px"
   viewBox="-52.5 0 361 361"
   version="1.1"
   preserveAspectRatio="xMidYMid"
   id="svg2275"
   sodipodi:docname="css.svg"
   inkscape:version="1.1.2 (0a00cf5, 2022-02-04)"
   xmlns:inkscape="http://www.inkscape.org/namespaces/inkscape"
   xmlns:sodipodi="http://sodipodi.sourceforge.net/DTD/sodipodi-0.dtd"
   xmlns="http://www.w3.org/2000/svg"
   xmlns:svg="http://www.w3.org/2000/svg">
  <defs
     id="defs2279" />
  <sodipodi:namedview
     id="namedview2277"
     pagecolor="#ffffff"
     bordercolor="#999999"
     borderopacity="1"
     inkscape:pageshadow="0"
     inkscape:pageopacity="0"
     inkscape:pagecheckerboard="0"
     showgrid="false"
     inkscape:zoom="2.2382271"
     inkscape:cx="180.5"
     inkscape:cy="180.5"
     inkscape:window-width="1920"
     inkscape:window-height="1016"
     inkscape:window-x="0"
     inkscape:window-y="28"
     inkscape:window-maximized="1"
     inkscape:current-layer="g2273" />
  <g
     id="g2273">
    <path
       d="M127.843868,360.087912 L23.6617143,331.166242 L0.445186813,70.7657143 L255.554813,70.7657143 L232.31367,331.125451 L127.843868,360.087912 L127.843868,360.087912 Z"
       fill="#264DE4"
       id="path2255"
       style="fill:#000000" />
    <path
       d="M212.416703,314.546637 L232.277802,92.0573187 L128,92.0573187 L128,337.950242 L212.416703,314.546637 L212.416703,314.546637 Z"
       fill="#2965F1"
       id="path2257"
       style="fill:#000000" />
    <path
       d="M53.6685714,188.636132 L56.530989,220.572835 L128,220.572835 L128,188.636132 L53.6685714,188.636132 L53.6685714,188.636132 Z"
       fill="#EBEBEB"
       id="path2259"
       style="fill:#ffffff" />
    <path
       d="M47.917011,123.994725 L50.8202198,155.932132 L128,155.932132 L128,123.994725 L47.917011,123.994725 L47.917011,123.994725 Z"
       fill="#EBEBEB"
       id="path2261"
       style="fill:#ffffff" />
    <path
       d="M128,271.580132 L127.860044,271.617407 L92.2915165,262.013187 L90.0177582,236.54189 L57.957978,236.54189 L62.4323516,286.687648 L127.853011,304.848879 L128,304.808088 L128,271.580132 L128,271.580132 Z"
       fill="#EBEBEB"
       id="path2263"
       style="fill:#ffffff" />
    <path
       d="M60.4835165,0 L99.1648352,0 L99.1648352,16.1758242 L76.6593407,16.1758242 L76.6593407,32.3516484 L99.1648352,32.3516484 L99.1648352,48.5274725 L60.4835165,48.5274725 L60.4835165,0 L60.4835165,0 Z"
       fill="#000000"
       id="path2265" />
    <path
       d="M106.901099,0 L145.582418,0 L145.582418,14.0659341 L123.076923,14.0659341 L123.076923,16.8791209 L145.582418,16.8791209 L145.582418,49.2307692 L106.901099,49.2307692 L106.901099,34.4615385 L129.406593,34.4615385 L129.406593,31.6483516 L106.901099,31.6483516 L106.901099,0 L106.901099,0 Z"
       fill="#000000"
       id="path2267" />
    <path
       d="M153.318681,0 L192,0 L192,14.0659341 L169.494505,14.0659341 L169.494505,16.8791209 L192,16.8791209 L192,49.2307692 L153.318681,49.2307692 L153.318681,34.4615385 L175.824176,34.4615385 L175.824176,31.6483516 L153.318681,31.6483516 L153.318681,0 L153.318681,0 Z"
       fill="#000000"
       id="path2269" />
    <path
       d="M202.126769,188.636132 L207.892396,123.994725 L127.889582,123.994725 L127.889582,155.932132 L172.892132,155.932132 L169.98611,188.636132 L127.889582,188.636132 L127.889582,220.572835 L167.216527,220.572835 L163.509451,261.992791 L127.889582,271.606857 L127.889582,304.833407 L193.362286,286.687648 L193.842637,281.291956 L201.347516,197.212132 L202.126769,188.636132 L202.126769,188.636132 Z"
       fill="#FFFFFF"
       id="path2271"
       style="fill:#ffffff" />
  </g>
</svg>
