<?xml version="1.0" encoding="UTF-8" standalone="no"?>
<svg
   width="361px"
   height="361px"
   viewBox="-52.5 0 361 361"
   preserveAspectRatio="xMinYMin meet"
   version="1.1"
   id="svg1908"
   sodipodi:docname="html.svg"
   inkscape:version="1.1.2 (0a00cf5, 2022-02-04)"
   xmlns:inkscape="http://www.inkscape.org/namespaces/inkscape"
   xmlns:sodipodi="http://sodipodi.sourceforge.net/DTD/sodipodi-0.dtd"
   xmlns="http://www.w3.org/2000/svg"
   xmlns:svg="http://www.w3.org/2000/svg">
  <defs
     id="defs1912" />
  <sodipodi:namedview
     id="namedview1910"
     pagecolor="#ffffff"
     bordercolor="#999999"
     borderopacity="1"
     inkscape:pageshadow="0"
     inkscape:pageopacity="0"
     inkscape:pagecheckerboard="0"
     showgrid="false"
     inkscape:zoom="2.2382271"
     inkscape:cx="188.54208"
     inkscape:cy="177.81931"
     inkscape:window-width="1920"
     inkscape:window-height="1016"
     inkscape:window-x="0"
     inkscape:window-y="28"
     inkscape:window-maximized="1"
     inkscape:current-layer="svg1908" />
  <path
     id="path1898"
     style="fill:#000000"
     d="M 52.945312 70.765625 L 76.162109 331.16602 L 180.34375 360.08789 L 284.81445 331.12695 L 308.05469 70.765625 L 52.945312 70.765625 z M 100.41797 123.99414 L 180.39062 123.99414 L 180.5 123.99414 L 260.39258 123.99414 L 259.62891 132.5625 L 258.17383 148.75391 L 257.5332 155.93164 L 180.5 155.93164 L 180.39062 155.93164 L 135.32031 155.93164 L 138.23828 188.63672 L 180.39062 188.63672 L 180.5 188.63672 L 254.62695 188.63672 L 253.84766 197.21289 L 246.3418 281.29297 L 245.86133 286.6875 L 180.5 304.80078 L 180.5 304.80859 L 180.35352 304.84766 L 114.93164 286.6875 L 110.45703 236.54297 L 142.51758 236.54297 L 144.79297 262.01367 L 180.35938 271.61719 L 180.38867 271.60938 L 180.38867 271.60742 L 216.00977 261.99219 L 219.7168 220.57227 L 180.5 220.57227 L 180.39062 220.57227 L 109.03125 220.57227 L 101.18164 132.5625 L 100.41797 123.99414 z "
     transform="translate(-52.5)" />
  <path
     d="M24.18 0h16.23v16.035h14.847V0h16.231v48.558h-16.23v-16.26H40.411v16.26h-16.23V0zM92.83 16.103H78.544V0h44.814v16.103h-14.295v32.455h-16.23V16.103h-.001zM130.47 0h16.923l10.41 17.062L168.203 0h16.93v48.558h-16.164V24.49l-11.166 17.265h-.28L146.35 24.49v24.068h-15.88V0zM193.21 0h16.235v32.508h22.824v16.05h-39.06V0z"
     id="path1904" />
</svg>
