<?xml version="1.0" encoding="UTF-8" standalone="no"?>
<svg
   data-name="Layer 1"
   id="Layer_1"
   viewBox="0 0 512 512"
   version="1.1"
   sodipodi:docname="pr.svg"
   inkscape:version="1.1.2 (0a00cf5, 2022-02-04)"
   xmlns:inkscape="http://www.inkscape.org/namespaces/inkscape"
   xmlns:sodipodi="http://sodipodi.sourceforge.net/DTD/sodipodi-0.dtd"
   xmlns="http://www.w3.org/2000/svg"
   xmlns:svg="http://www.w3.org/2000/svg">
  <sodipodi:namedview
     id="namedview1361"
     pagecolor="#ffffff"
     bordercolor="#999999"
     borderopacity="1"
     inkscape:pageshadow="0"
     inkscape:pageopacity="0"
     inkscape:pagecheckerboard="0"
     showgrid="false"
     inkscape:zoom="1.2871094"
     inkscape:cx="256.38846"
     inkscape:cy="255.61153"
     inkscape:window-width="1920"
     inkscape:window-height="1016"
     inkscape:window-x="0"
     inkscape:window-y="28"
     inkscape:window-maximized="1"
     inkscape:current-layer="Layer_1" />
  <defs
     id="defs1350">
    <style
       id="style1348">.cls-1{fill:#2c083d;}.cls-2{fill:#ed9efb;}</style>
  </defs>
  <path
     id="rect1352"
     style="fill:#000000"
     class="cls-1"
     d="M 136.06055 46.419922 C 82.843305 46.419922 40 89.263229 40 142.48047 L 40 369.5293 C 40 422.74654 82.843305 465.58984 136.06055 465.58984 L 375.93945 465.58984 C 429.15669 465.58984 472 422.74654 472 369.5293 L 472 142.48047 C 472 89.263229 429.15669 46.419922 375.93945 46.419922 L 136.06055 46.419922 z M 207.23047 163.94922 C 258.54047 163.94922 276.33008 192.39984 276.33008 220.08984 C 276.33008 261.24984 244.56922 278.76953 205.44922 278.76953 L 191 278.76953 L 191 328.76953 C 191 330.03953 190.49 330.76953 189 330.76953 L 157.69922 330.76953 C 156.41922 330.76953 155.91992 330.00953 155.91992 328.76953 L 155.91992 166.71094 C 155.91992 165.18094 156.16945 164.71094 157.43945 164.71094 C 167.85945 164.46094 187.92047 163.94922 207.23047 163.94922 z M 208.30078 194.65039 C 200.17078 194.65039 193.29953 194.90016 191.01953 195.16016 L 191 247.49023 C 195.32 247.74023 198.11047 247.74023 205.23047 247.74023 C 225.30047 247.74023 241.30078 241.64055 241.30078 220.81055 C 241.30078 204.81055 230.38078 194.65039 208.30078 194.65039 z M 371.5293 202.07031 C 373.0593 202.07031 373.5293 202.57031 373.5293 204.07031 L 373.5293 235.31055 C 373.5293 236.58055 373.02023 237.08984 371.24023 237.08984 C 352.95023 236.32984 338.24086 241.91953 332.88086 248.01953 L 332.63086 328.80078 C 332.63086 330.32078 332.11984 330.80078 330.33984 330.80078 L 300 330.80078 C 298 330.80078 297.46094 330.03977 297.46094 328.50977 L 297.46094 240.88086 C 297.46094 229.96086 297.19945 215.23008 296.18945 206.33008 C 296.18945 205.06008 296.44094 204.56055 297.71094 204.56055 L 325.34961 204.56055 A 2.81 2.81 0 0 1 328.34961 206.83984 A 48.35 48.35 0 0 1 331.14062 221.07031 A 53 53 0 0 1 371.5293 202.07031 z " />
</svg>
