<?xml version="1.0" ?><svg data-name="Layer 1" id="Layer_1" viewBox="0 0 512 512" xmlns="http://www.w3.org/2000/svg"><defs><style>.cls-1{fill:#2c083d;}.cls-2{fill:#ed9efb;}</style></defs><rect class="cls-1" height="419.17" rx="96.06" width="432" x="40" y="46.42"/><rect class="cls-1" height="379.17" rx="76.06" width="392" x="60" y="66.42"/><path class="cls-2" d="M155.92,166.71c0-1.53.25-2,1.52-2,10.42-.25,30.48-.76,49.79-.76,51.31,0,69.1,28.45,69.1,56.14,0,41.16-31.76,58.68-70.88,58.68H191v50c0,1.27-.51,2-2,2H157.7c-1.28,0-1.78-.76-1.78-2ZM191,247.49c4.32.25,7.11.25,14.23.25,20.07,0,36.07-6.1,36.07-26.93,0-16-10.92-26.16-33-26.16-8.13,0-15,.25-17.28.51Z"/><path class="cls-2" d="M325.35,204.56a2.81,2.81,0,0,1,3,2.28,48.35,48.35,0,0,1,2.79,14.23,53,53,0,0,1,40.39-19c1.53,0,2,.5,2,2v31.24c0,1.27-.51,1.78-2.29,1.78-18.29-.76-33,4.83-38.36,10.93l-.25,80.78c0,1.52-.51,2-2.29,2H300c-2,0-2.54-.76-2.54-2.29V240.88c0-10.92-.26-25.65-1.27-34.55,0-1.27.25-1.77,1.52-1.77Z"/></svg>