<?xml version="1.0" ?><svg data-name="Layer 1" id="Layer_1" viewBox="0 0 512 512" xmlns="http://www.w3.org/2000/svg"><defs><style>.cls-1{fill:#001d23;}.cls-2{fill:#01c8fe;}</style></defs><rect class="cls-1" height="419.17" rx="96.06" width="432" x="40" y="46.42"/><rect class="cls-1" height="379.17" rx="76.06" width="392" x="60" y="66.42"/><path class="cls-2" d="M147.92,166.71c0-1.53.25-2,1.52-2,10.42-.25,30.48-.76,49.79-.76,51.31,0,69.1,28.45,69.1,56.14,0,41.16-31.76,58.68-70.88,58.68H183v50c0,1.27-.51,2-2,2H149.69c-1.27,0-1.77-.76-1.77-2ZM183,247.49c4.32.25,7.11.25,14.23.25,20.07,0,36.07-6.1,36.07-26.93,0-16-10.92-26.16-33-26.16-8.13,0-15,.25-17.28.51Z"/><path class="cls-2" d="M333.6,230.21c-11.94,0-15.75,4.32-15.75,8.64s3.31,7.62,18,13.21c30.74,11.18,40.39,23.12,40.39,41.15,0,24.14-18.8,40.14-52.33,40.14-15.49,0-29-2.8-36.83-7.11a3,3,0,0,1-1.78-2.8V296c0-1.53,1-2.29,2-1.53,11.69,7.37,25.91,10.16,37.34,10.16,11.94,0,17.28-3.3,17.28-8.63,0-4.83-4.32-8.39-19.31-14-28.7-10.67-38.1-22.87-38.1-41.16,0-19.81,16-38.86,49.53-38.86,15,0,26.68,2,33,5.08a3.25,3.25,0,0,1,1.77,3.3v25.4c0,1.53-1,2.54-2.54,1.78C358,233.26,345,230.21,333.6,230.21Z"/></svg>