<?xml version="1.0" encoding="UTF-8" standalone="no"?>
<!-- Created with Inkscape (http://www.inkscape.org/) -->

<svg
   width="93.376671mm"
   height="64.464752mm"
   viewBox="0 0 93.376671 64.464752"
   version="1.1"
   id="svg5"
   xml:space="preserve"
   xmlns="http://www.w3.org/2000/svg"
   xmlns:svg="http://www.w3.org/2000/svg"><defs
     id="defs2" /><g
     id="layer1"
     transform="translate(6.8776612,137.22677)"><path
       fill="#ff0066"
       d="m 61.531932,-136.24485 c 7.373427,2.76543 9.924924,11.67696 14.525202,19.45649 4.615485,7.82167 11.294955,14.55349 10.351935,21.326587 -0.958224,6.730963 -9.477804,13.488562 -19.184031,17.325693 -9.706224,3.83713 -20.645008,4.810587 -32.056382,5.210533 -11.472505,0.414607 -23.524634,0.327156 -31.3846393,-3.786743 -7.7988783,-4.128549 -11.527891,-12.254248 -10.491819,-19.873757 0.9597426,-7.647003 6.62343602,-14.773163 13.476507,-20.627743 6.7919483,-5.83991 14.8343893,-10.42289 24.9532923,-14.40471 10.180025,-3.99647 22.390583,-7.33499 29.809935,-4.62635 z"
       id="path5957"
       style="fill:#6272a4;fill-opacity:1;stroke-width:0.264583" /></g></svg>
